<svg width="96" height="96" viewBox="0 0 480 480" fill="none" xmlns="http://www.w3.org/2000/svg">
<rect width="480" height="480" fill="#F5F5F5"/>
<rect width="480" height="480" fill="#61CDEB"/>
<path d="M31 359C34.9227 339.879 38.7053 321.161 42.3478 302.848C46.2705 284.265 50.0531 265.951 53.6956 247.907C57.6184 226.901 61.5411 205.625 65.4638 184.079C69.6667 162.534 73.4493 141.528 76.8116 121.06C80.4541 100.592 83.256 81.6049 85.2174 64.0994C89.7005 63.83 94.0435 63.5607 98.2464 63.2914C102.449 63.0221 106.512 62.7528 110.435 62.4835C114.077 62.2141 117.72 61.9448 121.362 61.6755C125.285 61.4062 129.068 61.1369 132.71 60.8676L152.884 59.6556C154.845 69.8896 156.527 79.989 157.928 89.9537C159.609 99.9183 161.15 109.614 162.551 119.04C163.671 125.503 164.932 133.044 166.333 141.662C168.014 150.28 169.556 159.168 170.957 168.325C172.638 177.212 174.179 185.561 175.58 193.371C177.261 201.181 178.662 207.51 179.783 212.358C182.585 198.084 184.826 186.369 186.507 177.212C188.469 167.786 190.29 158.764 191.971 150.146C193.932 141.258 196.174 130.89 198.696 119.04L211.725 60.0596L263 54C258.237 74.1987 253.754 93.8587 249.551 112.98C245.348 132.102 241.425 150.684 237.783 168.728C230.778 201.316 224.614 231.883 219.29 260.43C213.966 288.709 209.903 313.486 207.101 334.762L138.594 350.113L132.29 287.901C131.729 281.706 130.889 274.3 129.768 265.682C128.647 256.795 127.527 247.773 126.406 238.616C125.285 229.19 124.164 220.706 123.043 213.166C121.923 205.355 121.082 199.565 120.522 195.795C117.72 211.684 115.058 227.17 112.536 242.252C110.014 257.064 107.213 271.472 104.13 285.477C102.169 294.903 100.208 304.733 98.2464 314.967C96.5652 324.932 94.6039 335.031 92.3623 345.265L31 359Z" fill="#D82C2C"/>
<path d="M242.727 425C238.439 425 234.151 424.723 229.863 424.17C225.576 423.893 221.288 423.478 217 422.925L241.349 311.299C244.411 296.084 247.627 280.039 250.996 263.163C254.671 246.011 258.193 229.136 261.562 212.537C264.931 195.662 267.841 180.032 270.291 165.646C273.048 151.261 275.191 139.088 276.723 129.129C289.892 126.916 303.215 124.841 316.691 122.905C330.167 120.968 343.949 120 358.038 120C380.702 120 398.618 124.288 411.788 132.864C424.958 141.163 434.452 152.229 440.271 166.061C446.09 179.617 449 194.556 449 210.878C449 225.54 446.703 241.032 442.109 257.354C437.515 273.399 430.93 289.444 422.354 305.49C414.085 321.258 404.131 336.197 392.493 350.306C374.423 372.161 352.372 390.143 326.339 404.252C300.612 418.084 272.741 425 242.727 425ZM297.396 372.714C308.116 366.351 318.222 356.669 327.717 343.667C337.517 330.664 346.706 315.034 355.281 296.775C362.938 279.9 368.91 263.993 373.198 249.054C377.486 233.839 379.63 221.252 379.63 211.293C379.63 201.057 376.414 193.034 369.982 187.224C363.857 181.415 354.056 178.51 340.58 178.51C335.68 202.302 330.626 224.295 325.42 244.49C320.519 264.685 315.619 285.018 310.719 305.49C306.125 325.961 301.684 348.37 297.396 372.714Z" fill="#D8512C"/>
</svg>
